<svg width="50" height="50" viewBox="0 0 50 50" fill="none" xmlns="http://www.w3.org/2000/svg">
<path d="M24.7039 49.9737C23.875 49.9474 23.4495 49.9079 22.7302 49.7982C18.7609 49.1974 15.2741 47.636 12.1601 45.0614C11.5548 44.5614 10.0504 43.0482 9.5241 42.4123C6.81358 39.1316 5.22147 35.3728 4.7434 31.1184C4.63375 30.1623 4.63375 27.693 4.73901 26.7412C4.9934 24.4825 5.54165 22.3684 6.34866 20.5263L6.53726 20.1009L6.31796 19.8772C5.69515 19.2325 4.52849 17.4561 4.16445 16.6009C3.87059 15.9079 3.44954 14.4035 3.25217 13.3333C3.13375 12.693 3.12937 9.76315 3.24779 9.01315C3.5548 7.04385 3.94077 5.56578 4.34428 4.7807C4.53287 4.42105 4.91884 3.96929 5.04165 3.96929C5.17761 3.96929 5.26094 4.1535 5.64252 5.29385C6.37937 7.48245 6.94954 8.7807 7.65129 9.84649C8.31358 10.8509 8.88814 11.4825 9.51972 11.8947C10.0022 12.2105 11.625 12.9167 11.8706 12.9167C11.8969 12.9167 12.1732 12.7105 12.4802 12.4649C17.0066 8.83333 22.7127 7.22368 28.4846 7.96052C30.7215 8.24561 32.8794 8.89473 34.9978 9.92105L35.8618 10.3377L36.8706 9.5614C37.8267 8.82894 37.8925 8.76754 38.1381 8.40789C38.9232 7.24561 39.1118 6.77192 39.6601 4.52192C39.9013 3.54824 39.989 2.97368 40.0767 1.8421C40.1952 0.324556 40.2346 0.0833281 40.4057 0.0394684C40.5592 -5.25329e-06 40.7259 0.11403 41.0855 0.491223C42.5329 2.00438 43.7829 5.1228 44.2083 8.26754C44.2434 8.5307 44.2653 9.19736 44.2653 10.0658C44.2653 11.5833 44.2609 11.6403 43.9495 12.8509C43.7039 13.8202 43.4846 14.4123 43.0329 15.3114L42.6162 16.1491L43.2434 17.0877C45.2653 20.114 46.3881 23.2368 46.7697 26.886C46.8574 27.7456 46.8706 29.7807 46.7916 30.636C46.375 35.1667 44.7653 39.057 41.8794 42.5219C41.3092 43.2061 39.9627 44.5439 39.2522 45.1316C36.0943 47.7368 32.4276 49.3289 28.3706 49.8509C27.7478 49.9298 27.2916 49.9561 26.0416 49.9912C25.7873 50 25.1864 49.9912 24.7039 49.9737Z" fill="#010000"/>
<path d="M24.0461 49.6886C23.2566 49.6052 22.3311 49.4649 21.6118 49.3202C16.5943 48.3026 12.1952 45.5307 9.08114 41.421C6.93641 38.5921 5.55483 35.1798 5.05483 31.4912C4.89693 30.3245 4.89693 27.4517 5.05044 26.3158C5.50658 23.0263 6.57237 20.136 8.30483 17.4912C9.16886 16.171 9.86623 15.3289 11.1338 14.0702C12.0461 13.1623 12.3662 12.886 13.2566 12.2149C19.0329 7.87279 26.6601 6.85086 33.432 9.51753C34.0768 9.77192 35.4583 10.4386 36.1075 10.807C40.1513 13.1184 43.3969 16.8596 45.1118 21.1842C45.761 22.8114 46.182 24.4605 46.4408 26.3596C46.5548 27.1974 46.6075 29.5921 46.5285 30.5789C46.2829 33.6667 45.2566 36.8903 43.6645 39.5526C41.7259 42.7982 38.8355 45.557 35.6031 47.2544C33.1601 48.5351 31.0548 49.2149 28.3443 49.5921C27.7873 49.6667 27.4232 49.6842 25.9539 49.693C25.0022 49.6974 24.1425 49.6974 24.0461 49.6886ZM27.8224 44.7105C28.1601 44.6491 28.6031 44.4123 28.9232 44.1272C29.182 43.8903 29.4101 43.557 29.3399 43.5131C29.318 43.5 29.1732 43.5526 29.0197 43.6228C28.8662 43.6974 28.5636 43.8158 28.3443 43.8903C27.5768 44.1491 26.6732 44.0921 25.8575 43.7281C25.4539 43.5482 25.2961 43.5 25.2961 43.557C25.2961 43.6316 25.6118 43.9912 25.8575 44.2061C26.3882 44.6579 27.1031 44.8421 27.8224 44.7105ZM28.0373 42.4123C29.5241 42.2149 30.739 41.8552 32.0285 41.2324C35.2522 39.671 37.6952 36.8552 38.8224 33.4079C39.239 32.1403 39.4496 31.0088 39.4934 29.8377C39.5066 29.4342 39.5329 29.0833 39.5548 29.0526C39.5987 28.9737 39.9452 29.1579 40.5548 29.5877L41.0548 29.9386L41.0285 29.7719C40.9846 29.5044 40.6952 28.9693 40.4759 28.75C39.818 28.0921 38.7434 28.0658 37.9803 28.693C37.8092 28.8333 37.682 29 37.7171 29.0351C37.7259 29.0438 38.0285 29.0131 38.3882 28.9693C38.7522 28.921 39.0943 28.8816 39.1513 28.8816H39.2566L39.2303 29.5088C39.1645 31.0219 38.6996 32.8333 38.011 34.2763C36.6294 37.1491 34.568 39.3289 32.011 40.614C29.2961 41.9781 26.3487 42.3026 23.4759 41.5526C21.2039 40.9649 18.9539 39.5921 17.4189 37.8684C15.5241 35.7368 14.4189 33.2807 14.0899 30.4737C14.0154 29.8509 14.0373 29.75 14.2347 29.7807C14.3004 29.7938 14.5417 29.8202 14.7697 29.8465C14.9978 29.8728 15.261 29.9035 15.3531 29.9167C15.5768 29.9517 15.568 29.8552 15.3311 29.6228C14.932 29.2368 14.2829 29.0351 13.7566 29.136C13.1645 29.2456 12.6645 29.6272 12.4145 30.1535C12.2478 30.5044 12.1952 30.7237 12.2741 30.7237C12.3048 30.7237 12.568 30.5614 12.8531 30.3684C13.1469 30.1667 13.3882 30.0263 13.4101 30.0482C13.432 30.0702 13.4803 30.364 13.5197 30.7017C13.7039 32.3114 14.3487 34.3026 15.1513 35.7456C16.7303 38.5833 19.3706 40.8114 22.3487 41.8158C23.2961 42.136 24.4539 42.3816 25.4496 42.4737C26.0417 42.5307 27.3925 42.5 28.0373 42.4123ZM21.7346 28.0658C22.4276 27.9254 23.239 27.5833 23.7303 27.2237C23.8794 27.114 24.1864 26.8465 24.4101 26.6272C25.4539 25.614 25.7785 24.9605 25.9145 23.6184C25.9759 23.0088 25.9408 22.5131 25.7961 21.7544C25.6557 21.0482 25.5987 20.8991 25.4583 20.8991C25.4013 20.8991 25.3224 20.9254 25.2741 20.9561C25.1996 21.0131 25.1996 21.0351 25.2697 21.4912C25.3092 21.7544 25.3268 21.9824 25.3092 22C25.2917 22.0175 24.8224 21.9605 24.2654 21.864C22.3882 21.5482 20.1075 21.1579 18.3355 20.8552C17.3662 20.6842 16.4847 20.5482 16.3794 20.5482C16.1118 20.5482 15.6469 20.7895 14.7566 21.3816C14.0241 21.8684 12.8969 22.7456 12.8531 22.8596C12.8399 22.8903 12.8399 22.9298 12.8531 22.943C12.8618 22.9561 13.1294 22.8684 13.4408 22.7456C14.1118 22.4868 14.7741 22.3114 15.2303 22.2719L15.5592 22.2456V22.7456C15.5592 23.5965 15.625 24.1667 15.7741 24.6228C16.3969 26.5088 18.1776 27.9342 20.1732 28.136C20.625 28.1798 21.3092 28.1491 21.7346 28.0658ZM32.9846 26.0789C33.9013 25.8377 34.3706 25.5877 35.0855 24.9649C36.375 23.8421 37.0154 22.2105 36.8355 20.5263C36.7434 19.6754 36.6645 19.3202 36.489 18.9781L36.3268 18.6579L36.4232 18.5745C36.6031 18.4298 37.0811 18.386 38.1601 18.4123C38.8618 18.4298 39.1513 18.4254 39.1294 18.3903C38.9627 18.1228 35.6075 17.193 35.1338 17.2807C34.9232 17.3202 34.4276 17.5833 31.7039 19.1096C28.5241 20.8947 27.068 21.6754 27.0197 21.6272C27.0066 21.614 26.9539 21.4035 26.9013 21.1535L26.8092 20.7017L26.6469 20.6886L26.4803 20.6754V21.0438C26.4803 22.0789 26.9101 23.4605 27.4408 24.1316C28.0241 24.8728 28.6075 25.364 29.3048 25.7017C30.1645 26.1228 30.7961 26.2544 31.8311 26.2281C32.3706 26.2193 32.5461 26.1974 32.9846 26.0789Z" fill="#FF0000"/>
<path d="M20.1645 27.6491C19.0417 27.5175 17.8838 26.8596 17.1425 25.9254C16.4408 25.0439 16.0855 24.0526 16.0855 22.9693C16.0855 22.7017 16.1031 22.4737 16.125 22.4605C16.2039 22.4123 20.2478 22.8596 20.3267 22.9254C20.3574 22.9517 20.4057 23.0526 20.432 23.1535C20.5285 23.5263 20.5066 23.5088 20.6601 23.364C20.8487 23.1886 20.9627 23.136 21.1557 23.136C21.296 23.136 21.3487 23.1667 21.5066 23.3333C21.6074 23.443 21.7215 23.5307 21.7566 23.5307C21.796 23.5307 21.8925 23.443 21.9715 23.3377C22.0504 23.2281 22.1425 23.1316 22.1688 23.1184C22.1995 23.1053 22.546 23.136 22.9364 23.1842C23.3311 23.2281 24.046 23.3114 24.5285 23.3684L25.4057 23.4649L25.3969 23.6842C25.3794 24.1272 25.0329 25.0351 24.682 25.5482C24.2566 26.1754 23.5022 26.8377 22.8399 27.171C22.3881 27.3991 21.7566 27.5921 21.2829 27.6491C20.8399 27.7017 20.6381 27.7017 20.1645 27.6491ZM30.8531 25.6974C29.6645 25.4825 28.5504 24.7895 27.8311 23.8202C27.5767 23.4825 27.4013 23.1842 27.4013 23.0965C27.4013 23.057 28.9759 22.2588 29.0548 22.2588C29.0811 22.2588 29.1294 22.3026 29.1688 22.3596L29.2346 22.4561L29.3355 22.364C29.4934 22.2237 29.6162 22.171 29.796 22.171C29.9232 22.171 29.989 22.2061 30.1294 22.3465C30.2259 22.443 30.3311 22.5219 30.3618 22.5219C30.4715 22.5219 30.5592 22.2368 30.5592 21.8772V21.5263L30.7039 21.4561C30.7785 21.4167 31.0504 21.2895 31.3048 21.171C31.5592 21.0526 32.6162 20.5395 33.6513 20.0351C35.8618 18.9605 35.8004 18.9868 35.8838 19.0526C35.9188 19.0789 36.0153 19.3202 36.1031 19.5789C36.5504 20.9342 36.3224 22.4781 35.489 23.7368C34.625 25.0395 33.1776 25.7807 31.546 25.7632C31.3531 25.7632 31.0417 25.7325 30.8531 25.6974Z" fill="#FF0000"/>
<path d="M20.1645 27.6491C19.0417 27.5175 17.8838 26.8596 17.1425 25.9254C16.4408 25.0439 16.0855 24.0526 16.0855 22.9693C16.0855 22.7018 16.1031 22.4737 16.125 22.4605C16.1469 22.4474 16.4583 22.4649 16.8136 22.5C18.0811 22.6316 19.875 22.8333 19.9057 22.8509C19.9188 22.864 19.9583 22.9868 19.989 23.1316C20.0767 23.5482 20.2829 23.8728 20.5943 24.0877C20.9276 24.3114 21.239 24.3904 21.5855 24.3246C22.1557 24.2193 22.5109 23.886 22.7215 23.2588C22.7566 23.1579 22.739 23.1579 24.1995 23.3246L25.4057 23.4649L25.3969 23.6842C25.3794 24.1272 25.0329 25.0351 24.682 25.5482C24.2566 26.1754 23.5022 26.8377 22.8399 27.1711C22.3881 27.3991 21.7566 27.5921 21.2829 27.6491C20.8399 27.7018 20.6381 27.7018 20.1645 27.6491ZM30.8531 25.6974C29.6645 25.4825 28.5504 24.7895 27.8311 23.8202C27.5767 23.4825 27.4013 23.1842 27.4013 23.0965C27.4013 23.0614 28.5285 22.4781 28.5987 22.4781C28.6162 22.4781 28.6645 22.5526 28.7127 22.6491C28.8355 22.886 29.1688 23.2149 29.3881 23.3114C29.6601 23.4386 30.1206 23.4298 30.4101 23.2939C30.6908 23.1623 30.9364 22.9167 31.0548 22.6579C31.1688 22.4035 31.1776 21.8465 31.0724 21.557C31.0329 21.4474 31.0153 21.3465 31.0373 21.3246C31.0767 21.2851 35.4539 19.1491 35.682 19.0614C35.7873 19.0175 35.8355 19.0132 35.8838 19.0526C35.9188 19.0789 36.0153 19.3202 36.1031 19.5789C36.5504 20.9342 36.3224 22.4781 35.489 23.7368C34.625 25.0395 33.1776 25.7807 31.546 25.7632C31.3531 25.7632 31.0417 25.7325 30.8531 25.6974Z" fill="#F1FC02"/>
<path d="M20.7829 23.943C20.6601 23.8026 20.6425 23.7588 20.6557 23.5614C20.6688 23.3596 20.6864 23.3245 20.8179 23.2368C21.046 23.0833 21.2785 23.1009 21.4627 23.2851C21.5899 23.4123 21.6118 23.4649 21.6118 23.6316C21.6118 23.8026 21.5899 23.8465 21.4583 23.9649C21.3355 24.0745 21.2609 24.1009 21.1118 24.1009C20.9451 24.1009 20.9013 24.0789 20.7829 23.943ZM29.4978 23.1535C29.2522 23.0219 29.1469 22.5702 29.3136 22.386C29.5416 22.136 29.8618 22.1009 30.0943 22.307C30.3618 22.5395 30.3486 22.8772 30.0679 23.114C29.9188 23.2412 29.6864 23.2588 29.4978 23.1535Z" fill="#F1FC02"/>
<path d="M20.1645 27.6491C19.0417 27.5175 17.8838 26.8596 17.1425 25.9254C16.4408 25.0439 16.0855 24.0526 16.0855 22.9693C16.0855 22.7018 16.1031 22.4737 16.125 22.4605C16.1469 22.4474 16.4583 22.4649 16.8136 22.5C18.0811 22.6316 19.875 22.8333 19.9057 22.8509C19.9188 22.864 19.9583 22.9868 19.989 23.1316C20.0767 23.5482 20.2829 23.8728 20.5943 24.0877C20.9276 24.3114 21.239 24.3904 21.5855 24.3246C22.1557 24.2193 22.5109 23.886 22.7215 23.2588C22.7566 23.1579 22.739 23.1579 24.1995 23.3246L25.4057 23.4649L25.3969 23.6842C25.3794 24.1272 25.0329 25.0351 24.682 25.5482C24.2566 26.1754 23.5022 26.8377 22.8399 27.1711C22.3881 27.3991 21.7566 27.5921 21.2829 27.6491C20.8399 27.7018 20.6381 27.7018 20.1645 27.6491ZM30.8531 25.6974C29.6645 25.4825 28.5504 24.7895 27.8311 23.8202C27.5767 23.4825 27.4013 23.1842 27.4013 23.0965C27.4013 23.0614 28.5285 22.4781 28.5987 22.4781C28.6162 22.4781 28.6645 22.5526 28.7127 22.6491C28.8355 22.886 29.1688 23.2149 29.3881 23.3114C29.6601 23.4386 30.1206 23.4298 30.4101 23.2939C30.6908 23.1623 30.9364 22.9167 31.0548 22.6579C31.1688 22.4035 31.1776 21.8465 31.0724 21.557C31.0329 21.4474 31.0153 21.3465 31.0373 21.3246C31.0767 21.2851 35.4539 19.1491 35.682 19.0614C35.7873 19.0175 35.8355 19.0132 35.8838 19.0526C35.9188 19.0789 36.0153 19.3202 36.1031 19.5789C36.5504 20.9342 36.3224 22.4781 35.489 23.7368C34.625 25.0395 33.1776 25.7807 31.546 25.7632C31.3531 25.7632 31.0417 25.7325 30.8531 25.6974Z" fill="white"/>
</svg>
